<svg xmlns="http://www.w3.org/2000/svg" width="100" height="100" viewBox="0 0 100 100"><path d="M 50 0 C 22.391677 0 -1.1e-005 22.39166 0 50 C 0 77.6083 22.391685 100 50 100 C 77.608315 100 100 77.6083 100 50 C 100.00001 22.39166 77.608323 0 50 0 z M 50 1 C 77.067883 1 99.000011 22.93216 99 50 C 99 77.0679 77.067875 99 50 99 C 22.932125 99 1 77.0679 1 50 C 0.999989 22.93216 22.932117 1 50 1 z M 30.044922 27.494141 A 0.50005 0.50005 0 0 0 29.550781 28 L 29.550781 28.994141 A 0.50005 0.50005 0 1 0 30.550781 28.994141 L 30.550781 28 A 0.50005 0.50005 0 0 0 30.044922 27.494141 z M 27.541016 28.490234 A 0.50005 0.50005 0 0 0 27.193359 29.349609 L 28.193359 30.349609 A 0.50005 0.50005 0 1 0 28.900391 29.642578 L 27.900391 28.642578 A 0.50005 0.50005 0 0 0 27.541016 28.490234 z M 26.5 31 A 0.50064427 0.50064427 0 1 0 26.550781 32 L 27.544922 32 A 0.50005 0.50005 0 1 0 27.544922 31 L 26.550781 31 A 0.50005 0.50005 0 0 0 26.5 31 z M 31.103516 31 C 29.705409 31 28.550781 32.1168 28.550781 33.5 L 28.550781 56.998047 L 20.566406 56.998047 A 0.50005 0.50005 0 0 0 20.525391 56.998047 A 0.50005 0.50005 0 0 0 20.474609 56.998047 A 0.50064427 0.50064427 0 1 0 20.525391 57.998047 C 21.094053 57.998047 21.529719 58.427422 21.550781 58.982422 L 21.550781 59.962891 L 21.558594 59.962891 L 21.558594 60.962891 L 21.550781 60.962891 L 21.550781 61.962891 L 21.558594 61.962891 L 21.558594 61.972656 C 21.558594 62.547656 21.108133 62.998047 20.525391 62.998047 A 0.50005 0.50005 0 1 0 20.525391 63.998047 L 20.539062 63.998047 A 0.50005 0.50005 0 0 0 20.566406 63.998047 L 22.880859 63.998047 A 0.50004994 0.50004994 0 0 0 23.066406 64.03125 L 36.53125 64.03125 C 37.096849 64.03125 37.529174 64.453294 37.556641 64.996094 L 23.550781 64.996094 L 23.550781 65.996094 L 37.566406 65.996094 L 37.566406 66.996094 L 23.550781 66.996094 L 23.550781 67.996094 L 37.5625 67.996094 C 37.5537 68.556694 37.109688 68.996094 36.53125 68.996094 L 23.066406 68.996094 A 0.50004994 0.50004994 0 1 0 23.066406 69.996094 L 36.53125 69.996094 C 37.64623 69.996094 38.566407 69.091969 38.566406 67.980469 L 38.566406 65.046875 C 38.566406 63.935475 37.646269 63.03125 36.53125 63.03125 L 36.255859 63.03125 C 36.444317 62.72945 36.559222 62.3784 36.564453 62 L 45.566406 62 L 45.566406 67 L 43.064453 67 C 42.242102 67 41.564453 67.6777 41.564453 68.5 L 41.564453 70 L 43.064453 70 L 56.064453 70 L 57.564453 70 L 57.564453 68.5 C 57.564453 67.6777 56.886805 67 56.064453 67 L 53.566406 67 L 53.566406 62 L 67.550781 62 L 67.550781 62.544922 L 67.550781 64.996094 L 67.550781 67.996094 C 67.550781 69.095494 68.451422 69.996094 69.550781 69.996094 L 75.550781 69.996094 C 76.648812 69.996094 77.54861 69.0976 77.550781 68 L 78.550781 68 C 79.650179 68 80.55078 67.0993 80.550781 66 L 80.550781 62.996094 C 80.550781 61.896794 79.650179 60.996094 78.550781 60.996094 L 77.550781 60.996094 L 77.550781 59.496094 A 0.50005 0.50005 0 0 0 77.050781 58.996094 L 76.050781 58.996094 L 70.580078 58.996094 L 70.580078 53.996094 L 71.066406 53.996094 C 71.742567 54.006094 71.742566 52.986394 71.066406 52.996094 L 70.580078 52.996094 L 70.580078 33.5 C 70.580078 32.1168 69.427404 31 68.029297 31 L 31.103516 31 z M 31.103516 32 L 68.029297 32 C 68.904151 32 69.580078 32.6673 69.580078 33.5 L 69.580078 53.369141 C 69.560288 53.453141 69.560288 53.539247 69.580078 53.623047 L 69.580078 57 L 34.869141 57 L 34.869141 57.03125 C 34.758677 57.01225 34.646745 56.998047 34.53125 56.998047 L 29.550781 56.998047 L 29.550781 33.5 C 29.550781 32.6673 30.228662 32 31.103516 32 z M 31.550781 33.996094 L 31.550781 34.496094 L 31.550781 55.003906 L 67.550781 55.003906 L 67.550781 33.996094 L 31.550781 33.996094 z M 32.550781 34.996094 L 66.550781 34.996094 L 66.550781 54.003906 L 32.550781 54.003906 L 32.550781 34.996094 z M 26.058594 41.503906 C 25.236089 41.503906 24.558594 42.181406 24.558594 43.003906 C 24.558594 43.826406 25.236089 44.503906 26.058594 44.503906 C 26.881099 44.503906 27.558594 43.826406 27.558594 43.003906 C 27.558594 42.181406 26.881099 41.503906 26.058594 41.503906 z M 26.058594 42.503906 C 26.340659 42.503906 26.558594 42.721906 26.558594 43.003906 C 26.558594 43.286006 26.340659 43.503906 26.058594 43.503906 C 25.776529 43.503906 25.558594 43.286006 25.558594 43.003906 C 25.558594 42.721906 25.776529 42.503906 26.058594 42.503906 z M 78.634766 43.080078 A 0.50005 0.50005 0 0 0 78.285156 43.939453 L 78.638672 44.292969 L 78.285156 44.646484 A 0.50005 0.50005 0 1 0 78.992188 45.353516 L 79.345703 45 L 79.699219 45.353516 A 0.50005 0.50005 0 1 0 80.40625 44.646484 L 80.052734 44.292969 L 80.40625 43.939453 A 0.50005 0.50005 0 0 0 80.042969 43.080078 A 0.50005 0.50005 0 0 0 79.699219 43.232422 L 79.345703 43.585938 L 78.992188 43.232422 A 0.50005 0.50005 0 0 0 78.634766 43.080078 z M 73.042969 46.498047 A 0.50005 0.50005 0 0 0 72.550781 47.003906 L 72.550781 47.503906 L 72.050781 47.503906 A 0.50005 0.50005 0 1 0 72.050781 48.503906 L 72.550781 48.503906 L 72.550781 49.003906 A 0.50005 0.50005 0 1 0 73.550781 49.003906 L 73.550781 48.503906 L 74.050781 48.503906 A 0.50005 0.50005 0 1 0 74.050781 47.503906 L 73.550781 47.503906 L 73.550781 47.003906 A 0.50005 0.50005 0 0 0 73.042969 46.498047 z M 22.042969 47.490234 A 0.50005 0.50005 0 0 0 21.550781 47.998047 L 21.550781 48.498047 L 21.050781 48.498047 A 0.50005 0.50005 0 1 0 21.050781 49.498047 L 21.550781 49.498047 L 21.550781 49.998047 A 0.50005 0.50005 0 1 0 22.550781 49.998047 L 22.550781 49.498047 L 23.050781 49.498047 A 0.50005 0.50005 0 1 0 23.050781 48.498047 L 22.550781 48.498047 L 22.550781 47.998047 A 0.50005 0.50005 0 0 0 22.042969 47.490234 z M 78.050781 50 A 0.49999991 0.5 0 0 0 77.550781 50.5 A 0.49999991 0.5 0 0 0 78.050781 51 A 0.49999991 0.5 0 0 0 78.550781 50.5 A 0.49999991 0.5 0 0 0 78.050781 50 z M 25.634766 52.080078 A 0.50005 0.50005 0 0 0 25.285156 52.939453 L 25.638672 53.292969 L 25.285156 53.646484 A 0.50005 0.50005 0 1 0 25.992188 54.353516 L 26.345703 54 L 26.699219 54.353516 A 0.50005 0.50005 0 1 0 27.40625 53.646484 L 27.052734 53.292969 L 27.40625 52.939453 A 0.50005 0.50005 0 0 0 27.042969 52.080078 A 0.50005 0.50005 0 0 0 26.699219 52.232422 L 26.345703 52.585938 L 25.992188 52.232422 A 0.50005 0.50005 0 0 0 25.634766 52.080078 z M 73.066406 53 A 0.50004997 0.50004997 0 1 0 73.066406 54 L 73.572266 54 A 0.50030889 0.50030889 0 0 1 73.558594 55 L 72.058594 55 C 71.382444 54.99 71.382444 56.0096 72.058594 56 L 74.085938 56 A 0.50030889 0.50030889 0 0 1 74.072266 57 L 73.058594 57 C 72.382434 56.99 72.382434 58.0096 73.058594 58 L 76.050781 58 C 76.72693 58.01 76.726931 56.9904 76.050781 57 L 76.015625 57 A 0.50030966 0.50030966 0 0 1 76.03125 56 L 79.050781 56 C 79.726941 56.01 79.726941 54.9904 79.050781 55 L 78.507812 55 A 0.50030966 0.50030966 0 0 1 78.523438 54 L 80.050781 54 A 0.50004997 0.50004997 0 1 0 80.050781 53 L 78.066406 53 L 73.066406 53 z M 75.517578 54 L 76.578125 54 A 0.50030889 0.50030889 0 0 1 76.564453 55 L 75.501953 55 A 0.50030966 0.50030966 0 0 1 75.517578 54 z M 78.050781 57 C 77.374631 56.99 77.37463 58.0096 78.050781 58 C 78.72693 58.01 78.726931 56.9903 78.050781 57 z M 22.267578 58.001953 L 29.517578 58.001953 C 30.0792 58.001953 30.507995 58.421797 30.539062 58.966797 L 22.552734 58.966797 C 22.542344 58.614597 22.4378 58.287253 22.267578 58.001953 z M 31.259766 58.001953 L 34.53125 58.001953 C 35.11398 58.001953 35.566406 58.450391 35.566406 59.025391 L 35.566406 61.976562 C 35.566406 62.551563 35.11398 63.001953 34.53125 63.001953 L 31.259766 63.001953 C 31.440294 62.699853 31.550781 62.351963 31.550781 61.976562 L 31.550781 59.025391 C 31.550781 58.650891 31.439589 58.303353 31.259766 58.001953 z M 36.277344 58.001953 L 69.580078 58.001953 L 69.580078 58.998047 L 69.050781 58.998047 L 68.050781 58.998047 A 0.50005 0.50005 0 0 0 67.550781 59.498047 L 67.550781 61.001953 L 36.566406 61.001953 L 36.566406 59.023438 C 36.566406 58.649837 36.456625 58.302753 36.277344 58.001953 z M 22.558594 59.966797 L 30.550781 59.966797 L 30.550781 60.966797 L 22.558594 60.966797 L 22.558594 59.966797 z M 68.550781 60 L 69.050781 60 L 76.050781 60 L 76.550781 60 L 76.550781 62.548828 L 76.550781 65 L 76.550781 68 C 76.550781 68.5627 76.113441 69 75.550781 69 L 69.550781 69 C 68.988118 69 68.550781 68.5627 68.550781 68 L 68.550781 65 L 68.550781 62.548828 L 68.550781 60 z M 22.558594 61.966797 L 30.550781 61.966797 L 30.550781 61.976562 C 30.550781 62.551563 30.100321 63.001953 29.517578 63.001953 L 22.267578 63.001953 C 22.448107 62.699553 22.558594 62.351963 22.558594 61.976562 L 22.558594 61.966797 z M 46.566406 62 L 52.566406 62 L 52.566406 67 L 46.566406 67 L 46.566406 62 z M 77.550781 62 L 78.550781 62 C 79.113402 62 79.55078 62.4375 79.550781 63 L 79.550781 66.003906 C 79.550781 66.566406 79.113402 67.003906 78.550781 67.003906 L 77.550781 67.003906 L 77.550781 65 L 77.550781 62.548828 L 77.550781 62 z M 43.064453 68 L 56.064453 68 C 56.350102 68 56.564453 68.2144 56.564453 68.5 L 56.564453 69 L 56.064453 69 L 43.064453 69 L 42.564453 69 L 42.564453 68.5 C 42.564453 68.2144 42.778805 68 43.064453 68 z " color="#000" font-family="sans-serif" font-weight="400" overflow="visible" style="line-height:normal;text-indent:0;text-align:start;text-decoration-line:none;text-decoration-style:solid;text-decoration-color:#000;text-transform:none;block-progression:tb;isolation:auto;mix-blend-mode:normal"/></svg>